RobotoSerifTextWide-SuperItalic 01h.ufo
<glyph name="exclam" format="2">
  <advance width="423"/>
  <unicode hex="0021"/>
  <outline>
    <contour>
      <point x="431" y="714" type="line"/>
      <point x="405" y="536"/>
      <point x="336" y="444"/>
      <point x="302" y="254" type="curve"/>
      <point x="120" y="254" type="line"/>
      <point x="151" y="461"/>
      <point x="120" y="555"/>
      <point x="148" y="714" type="curve"/>
    </contour>
    <component base="period" xOffset="-12"/>
  </outline>
</glyph>
<glyph name="five" format="2">
  <advance width="661"/>
  <unicode hex="0035"/>
  <outline>
    <contour>
      <point x="287" y="-90" type="curve" smooth="yes"/>
      <point x="495" y="-90"/>
      <point x="626" y="9"/>
      <point x="626" y="158" type="curve" smooth="yes"/>
      <point x="626.0" y="278"/>
      <point x="533.6191329638232" y="366.0"/>
      <point x="379" y="366" type="curve" smooth="yes"/>
      <point x="267" y="366"/>
      <point x="213" y="327"/>
      <point x="173" y="270" type="curve"/>
      <point x="207" y="276" type="line"/>
      <point x="264" y="589" type="line"/>
      <point x="216" y="463" type="line"/>
      <point x="588" y="463" type="line"/>
      <point x="633" y="609" type="line"/>
      <point x="144" y="609" type="line"/>
      <point x="70" y="208" type="line"/>
      <point x="183" y="208" type="line"/>
      <point x="202.0627541509861" y="252.14532540228362"/>
      <point x="238" y="279"/>
      <point x="281" y="279" type="curve" smooth="yes"/>
      <point x="338" y="279"/>
      <point x="360.0" y="231.0"/>
      <point x="360" y="170" type="curve" smooth="yes"/>
      <point x="360.0" y="100.0"/>
      <point x="330.7627118644068" y="4.0"/>
      <point x="245" y="4" type="curve" smooth="yes"/>
      <point x="158.13868613138686" y="4.0"/>
      <point x="125.0442262355326" y="67.86732129340218"/>
      <point x="105" y="128" type="curve"/>
      <point x="6" y="87" type="line"/>
      <point x="40" y="-5"/>
      <point x="108" y="-90.0"/>
    </contour>
  </outline>
</glyph>
<glyph name="C" format="2">
  <advance width="831"/>
  <unicode hex="0043"/>
  <anchor x="435" y="741" name="top"/>
  <anchor x="435" y="0" name="bottom"/>
  <outline>
    <contour>
      <point x="557" y="627" type="curve" smooth="yes"/>
      <point x="638.0" y="627.0"/>
      <point x="675" y="573"/>
      <point x="697" y="477" type="curve"/>
      <point x="817" y="477" type="line"/>
      <point x="858" y="710" type="line"/>
      <point x="750" y="710" type="line"/>
      <point x="693" y="538" type="line"/>
      <point x="760" y="526" type="line"/>
      <point x="740.2940205295022" y="630.4416911936381"/>
      <point x="684.1573033707865" y="720.0"/>
      <point x="490" y="720.0" type="curve" smooth="yes"/>
      <point x="209.0" y="720.0"/>
      <point x="29.0" y="547.0"/>
      <point x="29" y="333" type="curve" smooth="yes"/>
      <point x="29.0" y="104.0"/>
      <point x="223" y="-10.0"/>
      <point x="456" y="-10" type="curve" smooth="yes"/>
      <point x="637" y="-10"/>
      <point x="748.0192881139055" y="83.06027535595453"/>
      <point x="796" y="233" type="curve"/>
      <point x="702" y="268" type="line"/>
      <point x="668.0698960029744" y="154.23435718644356"/>
      <point x="596" y="83.0"/>
      <point x="504" y="83" type="curve" smooth="yes"/>
      <point x="407.0" y="83.0"/>
      <point x="352.0" y="149"/>
      <point x="352.0" y="281" type="curve" smooth="yes"/>
      <point x="352.0" y="453.0"/>
      <point x="429.1287128712871" y="627.0"/>
    </contour>
  </outline>
</glyph>
<glyph name="Q" format="2">
  <advance width="956"/>
  <unicode hex="0051"/>
  <outline>
    <contour>
      <point x="581" y="-228" type="curve" smooth="yes"/>
      <point x="664.2680412371134" y="-228.0"/>
      <point x="737.4571936853358" y="-214.20355236799907"/>
      <point x="778" y="-199" type="curve"/>
      <point x="807" y="-36" type="line"/>
      <point x="790.2676133875698" y="-41.90554821615186"/>
      <point x="706.0" y="-69.0"/>
      <point x="604" y="-69" type="curve" smooth="yes"/>
      <point x="518.0" y="-69.0"/>
      <point x="480.0" y="-50.05263157894737"/>
      <point x="480" y="-15" type="curve" smooth="yes"/>
      <point x="480" y="-6"/>
      <point x="482" y="4"/>
      <point x="484" y="14" type="curve"/>
      <point x="371" y="14" type="line"/>
      <point x="358.1201301629412" y="-12.750498892352905"/>
      <point x="347.0" y="-44.63636363636364"/>
      <point x="347" y="-72" type="curve" smooth="yes"/>
      <point x="347.0" y="-167.2207792207792"/>
      <point x="444" y="-228.0"/>
    </contour>
    <contour>
      <point x="929.0" y="583.0"/>
      <point x="756" y="720"/>
      <point x="512" y="720" type="curve" smooth="yes"/>
      <point x="203.0" y="720.0"/>
      <point x="29" y="543"/>
      <point x="29" y="328" type="curve" smooth="yes"/>
      <point x="29" y="127.0"/>
      <point x="202" y="-10"/>
      <point x="447" y="-10" type="curve" smooth="yes"/>
      <point x="755.0" y="-10.0"/>
      <point x="929" y="167"/>
      <point x="929" y="382" type="curve" smooth="yes"/>
    </contour>
    <contour>
      <point x="446" y="83" type="curve" smooth="yes"/>
      <point x="383" y="83.0"/>
      <point x="352.0" y="149"/>
      <point x="352" y="260" type="curve" smooth="yes"/>
      <point x="352.0" y="315"/>
      <point x="360" y="376"/>
      <point x="373" y="431" type="curve" smooth="yes"/>
      <point x="397" y="538"/>
      <point x="445" y="627.0"/>
      <point x="518" y="627.0" type="curve" smooth="yes"/>
      <point x="580" y="627.0"/>
      <point x="606.0" y="558"/>
      <point x="606" y="450" type="curve" smooth="yes"/>
      <point x="606.0" y="395"/>
      <point x="599" y="334"/>
      <point x="586" y="279" type="curve" smooth="yes"/>
      <point x="562" y="172"/>
      <point x="513" y="83.0"/>
    </contour>
  </outline>
</glyph>
<glyph name="S" format="2">
  <advance width="724"/>
  <unicode hex="0053"/>
  <guideline x="-25" y="652" angle="80" identifier="OA3g77awrT"/>
  <anchor x="387" y="741" name="top"/>
  <anchor x="387" y="0" name="bottom"/>
  <outline>
    <contour>
      <point x="381" y="-10" type="curve" smooth="yes"/>
      <point x="590" y="-10"/>
      <point x="700" y="93"/>
      <point x="700" y="235" type="curve" smooth="yes"/>
      <point x="700.0" y="351.03139013452915"/>
      <point x="622.0345114795846" y="401.8283130193179"/>
      <point x="484" y="460" type="curve" smooth="yes"/>
      <point x="390.6051638141586" y="499.0000414841975"/>
      <point x="316.0" y="511.9622641509434"/>
      <point x="316" y="568" type="curve" smooth="yes"/>
      <point x="316.0" y="604.7936507936508"/>
      <point x="346.35714285714283" y="629.0"/>
      <point x="401" y="629" type="curve" smooth="yes"/>
      <point x="479" y="629"/>
      <point x="541" y="581"/>
      <point x="569" y="513" type="curve"/>
      <point x="679" y="513" type="line"/>
      <point x="714" y="710" type="line"/>
      <point x="618" y="710" type="line"/>
      <point x="559" y="565" type="line"/>
      <point x="583.5906717342307" y="558.3794345330917"/>
      <point x="604.9314491868581" y="562.4307810524756"/>
      <point x="640" y="541" type="curve"/>
      <point x="609.0263118302546" y="645.9108792846217"/>
      <point x="524.2446808510638" y="720.0"/>
      <point x="361" y="720" type="curve" smooth="yes"/>
      <point x="169" y="720"/>
      <point x="66" y="623"/>
      <point x="66" y="496" type="curve" smooth="yes"/>
      <point x="66.0" y="377.0344827586207"/>
      <point x="150" y="316"/>
      <point x="268" y="266" type="curve" smooth="yes"/>
      <point x="361.8832358695149" y="226.0496868640362"/>
      <point x="443.0" y="199.54471544715446"/>
      <point x="443" y="144" type="curve" smooth="yes"/>
      <point x="443.0" y="103.35483870967742"/>
      <point x="419.0" y="81.0"/>
      <point x="352" y="81" type="curve" smooth="yes"/>
      <point x="250" y="81"/>
      <point x="178" y="141"/>
      <point x="149" y="232" type="curve"/>
      <point x="19" y="232" type="line"/>
      <point x="-22" y="0" type="line"/>
      <point x="82" y="0" type="line"/>
      <point x="142" y="172" type="line"/>
      <point x="141.03488372093022" y="172.0"/>
      <point x="99.49055137266109" y="186.71878506063757"/>
      <point x="59" y="206" type="curve"/>
      <point x="98.01426562007184" y="87.98184649928271"/>
      <point x="179.625386996904" y="-10.0"/>
    </contour>
  </outline>
</glyph>
<glyph name="T" format="2">
  <advance width="899"/>
  <unicode hex="0054"/>
  <guideline x="179" y="76" angle="80" identifier="HYDlmUSJ7D"/>
  <anchor x="465" y="741" name="top"/>
  <anchor x="465" y="0" name="bottom"/>
  <outline>
    <contour>
      <point x="255" y="112" type="line" smooth="yes"/>
      <point x="250" y="83"/>
      <point x="229" y="76"/>
      <point x="200" y="76" type="curve" smooth="yes"/>
      <point x="183" y="76" type="line"/>
      <point x="169" y="0" type="line"/>
      <point x="610" y="0" type="line"/>
      <point x="623" y="76" type="line"/>
      <point x="607" y="76" type="line" smooth="yes"/>
      <point x="578" y="76"/>
      <point x="559" y="83"/>
      <point x="564" y="112" type="curve" smooth="yes"/>
      <point x="655" y="623" type="line"/>
      <point x="664" y="623" type="line" smooth="yes"/>
      <point x="750" y="623"/>
      <point x="781" y="616"/>
      <point x="778" y="580" type="curve" smooth="yes"/>
      <point x="767" y="464" type="line"/>
      <point x="897" y="464" type="line"/>
      <point x="940" y="710" type="line"/>
      <point x="95" y="710" type="line"/>
      <point x="52" y="464" type="line"/>
      <point x="181" y="464" type="line"/>
      <point x="212" y="580" type="line" smooth="yes"/>
      <point x="222" y="616"/>
      <point x="253" y="623"/>
      <point x="336" y="623" type="curve" smooth="yes"/>
      <point x="345" y="623" type="line"/>
    </contour>
  </outline>
</glyph>
<glyph name="V" format="2">
  <advance width="857"/>
  <unicode hex="0056"/>
  <outline>
    <contour>
      <point x="522" y="68" type="line"/>
      <point x="433" y="624" type="line"/>
      <point x="435" y="631"/>
      <point x="459" y="634"/>
      <point x="479" y="634" type="curve" smooth="yes"/>
      <point x="498" y="634" type="line"/>
      <point x="512" y="710" type="line"/>
      <point x="80" y="710" type="line"/>
      <point x="66" y="634" type="line"/>
      <point x="72" y="634" type="line" smooth="yes"/>
      <point x="99" y="634"/>
      <point x="112" y="629"/>
      <point x="116" y="605" type="curve" smooth="yes"/>
      <point x="224" y="0" type="line"/>
      <point x="521" y="0" type="line"/>
      <point x="837" y="591" type="line" smooth="yes"/>
      <point x="855" y="625"/>
      <point x="866" y="634"/>
      <point x="896" y="634" type="curve" smooth="yes"/>
      <point x="900" y="634" type="line"/>
      <point x="914" y="710" type="line"/>
      <point x="688" y="710" type="line"/>
      <point x="673" y="634" type="line"/>
      <point x="689" y="634" type="line" smooth="yes"/>
      <point x="710" y="634"/>
      <point x="734" y="627"/>
      <point x="732" y="616" type="curve"/>
      <point x="455" y="81" type="line"/>
    </contour>
  </outline>
</glyph>
<glyph name="X" format="2">
  <advance width="856"/>
  <unicode hex="0058"/>
  <outline>
    <contour>
      <point x="66" y="634" type="line"/>
      <point x="71" y="634" type="line" smooth="yes"/>
      <point x="98" y="634"/>
      <point x="103" y="630"/>
      <point x="119" y="602" type="curve" smooth="yes"/>
      <point x="276" y="326" type="line"/>
      <point x="283" y="322" type="line"/>
      <point x="411" y="86" type="line"/>
      <point x="409" y="79"/>
      <point x="386" y="76"/>
      <point x="365" y="76" type="curve" smooth="yes"/>
      <point x="349" y="76" type="line"/>
      <point x="335" y="0" type="line"/>
      <point x="789" y="0" type="line"/>
      <point x="803" y="76" type="line"/>
      <point x="792" y="76" type="line" smooth="yes"/>
      <point x="765" y="76"/>
      <point x="759" y="82"/>
      <point x="743" y="110" type="curve" smooth="yes"/>
      <point x="566" y="415" type="line"/>
      <point x="560" y="418" type="line"/>
      <point x="451" y="624" type="line"/>
      <point x="453" y="631"/>
      <point x="475" y="634"/>
      <point x="496" y="634" type="curve" smooth="yes"/>
      <point x="513" y="634" type="line"/>
      <point x="526" y="710" type="line"/>
      <point x="80" y="710" type="line"/>
    </contour>
    <contour>
      <point x="-49" y="0" type="line"/>
      <point x="190" y="0" type="line"/>
      <point x="204" y="76" type="line"/>
      <point x="190" y="76" type="line" smooth="yes"/>
      <point x="167" y="76"/>
      <point x="143" y="83"/>
      <point x="145" y="94" type="curve"/>
      <point x="384" y="352" type="line"/>
      <point x="308" y="395" type="line"/>
      <point x="48" y="121" type="line" smooth="yes"/>
      <point x="16" y="88"/>
      <point x="1.0" y="76.0"/>
      <point x="-24" y="76" type="curve" smooth="yes"/>
      <point x="-35" y="76" type="line"/>
    </contour>
    <contour>
      <point x="572" y="350" type="line"/>
      <point x="786" y="588" type="line" smooth="yes"/>
      <point x="817" y="623"/>
      <point x="832" y="634"/>
      <point x="860" y="634" type="curve" smooth="yes"/>
      <point x="867" y="634" type="line"/>
      <point x="881" y="710" type="line"/>
      <point x="651" y="710" type="line"/>
      <point x="637" y="634" type="line"/>
      <point x="650" y="634" type="line" smooth="yes"/>
      <point x="671" y="634"/>
      <point x="697" y="627"/>
      <point x="695" y="616" type="curve"/>
      <point x="508" y="406" type="line"/>
    </contour>
  </outline>
</glyph>
<glyph name="Z" format="2">
  <advance width="752"/>
  <unicode hex="005A"/>
  <anchor x="391" y="741" name="top"/>
  <anchor x="391" y="0" name="bottom"/>
  <outline>
    <contour>
      <point x="170" y="87" type="line"/>
      <point x="218" y="9" type="line"/>
      <point x="763" y="603" type="line"/>
      <point x="782" y="710" type="line"/>
      <point x="100" y="710" type="line"/>
      <point x="62" y="495" type="line"/>
      <point x="191" y="495" type="line"/>
      <point x="214" y="580" type="line" smooth="yes"/>
      <point x="224" y="616"/>
      <point x="267" y="623"/>
      <point x="325" y="623" type="curve" smooth="yes"/>
      <point x="552" y="623" type="line"/>
      <point x="518" y="689" type="line"/>
      <point x="-14" y="111" type="line"/>
      <point x="-34" y="0" type="line"/>
      <point x="678" y="0" type="line"/>
      <point x="720" y="239" type="line"/>
      <point x="592" y="239" type="line"/>
      <point x="557" y="130" type="line" smooth="yes"/>
      <point x="545" y="94"/>
      <point x="511" y="87"/>
      <point x="421" y="87" type="curve" smooth="yes"/>
    </contour>
  </outline>
</glyph>
<glyph name="a" format="2">
  <advance width="788"/>
  <unicode hex="0061"/>
  <anchor x="370" y="513" name="top"/>
  <anchor x="562" y="-10" name="right"/>
  <anchor x="404" y="0" name="bottom"/>
  <outline>
    <contour>
      <point x="605" y="-11" type="curve" smooth="yes"/>
      <point x="671.5592105263158" y="-11.0"/>
      <point x="731.1335921880675" y="6.06412425027241"/>
      <point x="756" y="18" type="curve"/>
      <point x="770" y="96" type="line"/>
      <point x="766.1074701394227" y="95.02686753485568"/>
      <point x="755.4285714285714" y="89.0"/>
      <point x="736" y="89" type="curve" smooth="yes"/>
      <point x="720.0" y="89.0"/>
      <point x="707.0" y="96"/>
      <point x="707" y="114" type="curve" smooth="yes"/>
      <point x="706" y="131"/>
      <point x="712" y="163"/>
      <point x="720" y="206" type="curve" smooth="yes"/>
      <point x="777" y="522" type="line"/>
      <point x="591" y="522" type="line"/>
      <point x="482" y="437" type="line"/>
      <point x="470" y="444" type="line"/>
      <point x="413" y="116" type="line"/>
      <point x="421" y="127" type="line"/>
      <point x="422" y="121"/>
      <point x="422" y="119"/>
      <point x="422" y="115" type="curve"/>
      <point x="423" y="34"/>
      <point x="494" y="-11"/>
    </contour>
    <contour>
      <point x="244" y="-14" type="curve" smooth="yes"/>
      <point x="373.03614457831327" y="-14.0"/>
      <point x="430.64036039526025" y="62.31774251453788"/>
      <point x="499" y="192" type="curve"/>
      <point x="457" y="221" type="line"/>
      <point x="424" y="137"/>
      <point x="398" y="91"/>
      <point x="366" y="91" type="curve" smooth="yes"/>
      <point x="338" y="91"/>
      <point x="324" y="119"/>
      <point x="324" y="193" type="curve" smooth="yes"/>
      <point x="324" y="289"/>
      <point x="351" y="443"/>
      <point x="433" y="443" type="curve" smooth="yes"/>
      <point x="476" y="443"/>
      <point x="495" y="402"/>
      <point x="497" y="339" type="curve"/>
      <point x="620" y="339" type="line"/>
      <point x="605" y="444"/>
      <point x="532" y="523"/>
      <point x="385" y="523" type="curve" smooth="yes"/>
      <point x="148" y="523"/>
      <point x="24" y="368"/>
      <point x="26" y="195" type="curve" smooth="yes"/>
      <point x="26.999998436364848" y="65.00020327256976"/>
      <point x="108.72321428571428" y="-14.0"/>
    </contour>
  </outline>
</glyph>
<glyph name="c" format="2">
  <advance width="692"/>
  <unicode hex="0063"/>
  <anchor x="368" y="513" name="top"/>
  <anchor x="379" y="0" name="bottom"/>
  <outline>
    <contour>
      <point x="416" y="523" type="curve" smooth="yes"/>
      <point x="172" y="523"/>
      <point x="23.000000277899662" y="400.9999541465556"/>
      <point x="24" y="236" type="curve" smooth="yes"/>
      <point x="25.999997312873454" y="77.00021362656062"/>
      <point x="169.73638968481376" y="-14.0"/>
      <point x="370" y="-14" type="curve" smooth="yes"/>
      <point x="529" y="-14"/>
      <point x="614" y="47"/>
      <point x="661" y="141" type="curve"/>
      <point x="583" y="187" type="line"/>
      <point x="549" y="122"/>
      <point x="507" y="79.0"/>
      <point x="433" y="79" type="curve" smooth="yes"/>
      <point x="358.9826086956522" y="79.0"/>
      <point x="321.0" y="139.0"/>
      <point x="321" y="224" type="curve" smooth="yes"/>
      <point x="321.0" y="339.0"/>
      <point x="361" y="434.0"/>
      <point x="435" y="434" type="curve" smooth="yes"/>
      <point x="464" y="434.0"/>
      <point x="487.97746308975746" y="421.07083028933374"/>
      <point x="495" y="399" type="curve"/>
      <point x="526" y="407"/>
      <point x="528" y="450"/>
      <point x="477" y="455" type="curve"/>
      <point x="451" y="325" type="line"/>
      <point x="658" y="325" type="line"/>
      <point x="682" y="461" type="line"/>
      <point x="655.8666859047408" y="479.092294373641"/>
      <point x="570" y="523.0"/>
    </contour>
  </outline>
</glyph>
<glyph name="k" format="2">
  <advance width="803"/>
  <unicode hex="006B"/>
  <guideline x="782" y="96" angle="80" identifier="WzxBX0QbGD"/>
  <anchor x="409" y="0" name="bottom"/>
  <outline>
    <contour>
      <point x="690" y="147" type="line" smooth="yes"/>
      <point x="703.0395502958945" y="114.04289485653027"/>
      <point x="720.060606060606" y="91.0"/>
      <point x="754" y="91" type="curve" smooth="yes"/>
      <point x="766.8888888888889" y="91.0"/>
      <point x="779.7993056308914" y="94.93310187696376"/>
      <point x="783" y="96" type="curve"/>
      <point x="769" y="15" type="line"/>
      <point x="744.7087371731433" y="1.396892816960241"/>
      <point x="684.874213836478" y="-11.0"/>
      <point x="617" y="-11" type="curve" smooth="yes"/>
      <point x="490" y="-11"/>
      <point x="437" y="35"/>
      <point x="409" y="131" type="curve" smooth="yes"/>
      <point x="371" y="261" type="line"/>
      <point x="371" y="275" type="line"/>
      <point x="459" y="354"/>
      <point x="549" y="434"/>
      <point x="637" y="513" type="curve"/>
      <point x="836" y="513" type="line"/>
      <point x="836" y="500" type="line"/>
      <point x="717" y="426"/>
      <point x="598" y="352"/>
      <point x="481" y="277" type="curve"/>
      <point x="599" y="377" type="line"/>
    </contour>
    <contour>
      <point x="13" y="0" type="line"/>
      <point x="124" y="630" type="line" smooth="yes"/>
      <point x="127" y="648"/>
      <point x="116.01880829122273" y="654.7962383417555"/>
      <point x="95" y="659" type="curve" smooth="yes"/>
      <point x="85" y="661" type="line"/>
      <point x="100" y="735" type="line"/>
      <point x="434" y="735" type="line"/>
      <point x="304" y="0" type="line"/>
    </contour>
  </outline>
</glyph>
<glyph name="m" format="2">
  <advance width="1137"/>
  <unicode hex="006D"/>
  <anchor x="573" y="-10" name="bottom"/>
  <outline>
    <contour>
      <point x="8" y="0" type="line"/>
      <point x="80" y="408" type="line" smooth="yes"/>
      <point x="83.16338169949293" y="425.92582963045993"/>
      <point x="72.09246316314999" y="432.98150736737"/>
      <point x="52" y="437" type="curve" smooth="yes"/>
      <point x="42" y="439" type="line"/>
      <point x="56" y="513" type="line"/>
      <point x="376" y="513" type="line"/>
      <point x="357" y="379" type="line"/>
      <point x="367" y="388" type="line"/>
      <point x="299" y="0" type="line"/>
    </contour>
    <contour>
      <point x="380" y="0" type="line"/>
      <point x="434" y="308" type="line" smooth="yes"/>
      <point x="439.2292998653624" y="337.82637700984486"/>
      <point x="442" y="362"/>
      <point x="442" y="377" type="curve" smooth="yes"/>
      <point x="442" y="394"/>
      <point x="436" y="409"/>
      <point x="419" y="409" type="curve" smooth="yes"/>
      <point x="387" y="409"/>
      <point x="348" y="359"/>
      <point x="324" y="288" type="curve"/>
      <point x="314" y="341" type="line"/>
      <point x="380" y="449"/>
      <point x="452" y="523"/>
      <point x="577" y="523" type="curve" smooth="yes"/>
      <point x="676" y="523"/>
      <point x="731" y="469"/>
      <point x="731" y="399" type="curve" smooth="yes"/>
      <point x="731" y="371"/>
      <point x="730" y="340"/>
      <point x="721" y="286" type="curve" smooth="yes"/>
      <point x="671" y="0" type="line"/>
    </contour>
    <contour>
      <point x="1069" y="205" type="line" smooth="yes"/>
      <point x="1060" y="162"/>
      <point x="1055.0" y="132"/>
      <point x="1055" y="113" type="curve" smooth="yes"/>
      <point x="1055.0" y="95"/>
      <point x="1065" y="88.0"/>
      <point x="1083" y="88" type="curve" smooth="yes"/>
      <point x="1100" y="88.0"/>
      <point x="1112" y="95"/>
      <point x="1116" y="96" type="curve"/>
      <point x="1101" y="20" type="line"/>
      <point x="1072" y="5"/>
      <point x="1015" y="-11"/>
      <point x="949" y="-11" type="curve" smooth="yes"/>
      <point x="846.0" y="-11.0"/>
      <point x="769" y="33"/>
      <point x="769" y="116" type="curve" smooth="yes"/>
      <point x="769" y="143"/>
      <point x="774" y="175"/>
      <point x="785" y="235" type="curve" smooth="yes"/>
      <point x="799" y="310" type="line" smooth="yes"/>
      <point x="804" y="339"/>
      <point x="808" y="359"/>
      <point x="808" y="375" type="curve" smooth="yes"/>
      <point x="808" y="394"/>
      <point x="802" y="409"/>
      <point x="785" y="409" type="curve" smooth="yes"/>
      <point x="755" y="409"/>
      <point x="715" y="359"/>
      <point x="690" y="288" type="curve"/>
      <point x="680" y="341" type="line"/>
      <point x="747" y="449"/>
      <point x="819" y="523"/>
      <point x="944" y="523" type="curve" smooth="yes"/>
      <point x="1045" y="523"/>
      <point x="1102" y="471"/>
      <point x="1102" y="403" type="curve" smooth="yes"/>
      <point x="1102.0" y="376"/>
      <point x="1098" y="346"/>
      <point x="1087" y="293" type="curve" smooth="yes"/>
    </contour>
  </outline>
</glyph>
<glyph name="n" format="2">
  <advance width="797"/>
  <unicode hex="006E"/>
  <guideline x="299" y="0" angle="80" identifier="iZ0Hmphkr6"/>
  <anchor x="394" y="513" name="top"/>
  <anchor x="402" y="0" name="bottom"/>
  <outline>
    <contour>
      <point x="8" y="0" type="line"/>
      <point x="80" y="408" type="line" smooth="yes"/>
      <point x="83" y="426"/>
      <point x="72" y="433"/>
      <point x="52" y="437" type="curve" smooth="yes"/>
      <point x="42" y="439" type="line"/>
      <point x="56" y="513" type="line"/>
      <point x="376" y="513" type="line"/>
      <point x="357" y="379" type="line"/>
      <point x="370" y="404" type="line"/>
      <point x="299" y="0" type="line"/>
    </contour>
    <contour>
      <point x="728" y="201" type="line" smooth="yes"/>
      <point x="717" y="146"/>
      <point x="715" y="128"/>
      <point x="715" y="111" type="curve" smooth="yes"/>
      <point x="715" y="95"/>
      <point x="726" y="88"/>
      <point x="742" y="88" type="curve" smooth="yes"/>
      <point x="759" y="88"/>
      <point x="773" y="95"/>
      <point x="776" y="96" type="curve"/>
      <point x="761" y="20" type="line"/>
      <point x="732" y="5"/>
      <point x="677" y="-11"/>
      <point x="612" y="-11" type="curve" smooth="yes"/>
      <point x="505" y="-11"/>
      <point x="429" y="33"/>
      <point x="429" y="116" type="curve" smooth="yes"/>
      <point x="429" y="142"/>
      <point x="433" y="171"/>
      <point x="443" y="227" type="curve" smooth="yes"/>
      <point x="459" y="309" type="line" smooth="yes"/>
      <point x="464" y="338"/>
      <point x="468" y="359"/>
      <point x="468" y="375" type="curve" smooth="yes"/>
      <point x="468" y="397"/>
      <point x="459" y="409"/>
      <point x="440" y="409" type="curve" smooth="yes"/>
      <point x="403" y="409"/>
      <point x="353" y="359"/>
      <point x="321" y="288" type="curve"/>
      <point x="310" y="341" type="line"/>
      <point x="376" y="443"/>
      <point x="464" y="523"/>
      <point x="594" y="523" type="curve" smooth="yes"/>
      <point x="701" y="523"/>
      <point x="762.0" y="471"/>
      <point x="762" y="400" type="curve" smooth="yes"/>
      <point x="762.0" y="372"/>
      <point x="757" y="343"/>
      <point x="746" y="289" type="curve" smooth="yes"/>
    </contour>
  </outline>
</glyph>
<glyph name="o" format="2">
  <advance width="788"/>
  <unicode hex="006F"/>
  <anchor x="395" y="513" name="top"/>
  <anchor x="508" y="0" name="right"/>
  <anchor x="395" y="0" name="bottom"/>
  <outline>
    <contour>
      <point x="24" y="84"/>
      <point x="167" y="-14.0"/>
      <point x="384" y="-14" type="curve" smooth="yes"/>
      <point x="622" y="-14"/>
      <point x="764" y="106"/>
      <point x="764" y="266" type="curve" smooth="yes"/>
      <point x="764.0" y="424"/>
      <point x="623" y="523.0"/>
      <point x="404" y="523" type="curve" smooth="yes"/>
      <point x="167" y="523"/>
      <point x="24" y="403"/>
      <point x="24" y="243" type="curve" smooth="yes"/>
    </contour>
    <contour>
      <point x="450" y="202" type="curve" smooth="yes"/>
      <point x="436.9919789188472" y="143.96421363793374"/>
      <point x="412" y="75.0"/>
      <point x="371" y="75" type="curve" smooth="yes"/>
      <point x="336" y="75.0"/>
      <point x="322.0" y="106.0"/>
      <point x="322" y="180" type="curve" smooth="yes"/>
      <point x="322.0" y="214.0"/>
      <point x="328.0236970535303" y="257.11633099005786"/>
      <point x="339" y="311" type="curve" smooth="yes"/>
      <point x="351.00627312004514" y="369.03032008021825"/>
      <point x="379.50632911392404" y="434.0"/>
      <point x="419" y="434" type="curve" smooth="yes"/>
      <point x="453.72340425531917" y="434.0"/>
      <point x="467.0" y="397.0"/>
      <point x="467" y="333" type="curve" smooth="yes"/>
      <point x="467.0" y="298.0"/>
      <point x="459.9775070053899" y="249.89203362587136"/>
    </contour>
  </outline>
</glyph>
<glyph name="r" format="2">
  <advance width="565"/>
  <unicode hex="0072"/>
  <anchor x="304" y="513" name="top"/>
  <anchor x="242" y="0" name="bottom"/>
  <outline>
    <contour>
      <point x="8" y="0" type="line"/>
      <point x="299" y="0" type="line"/>
      <point x="358" y="339" type="line"/>
      <point x="349" y="334" type="line"/>
      <point x="376" y="513" type="line"/>
      <point x="56" y="513" type="line"/>
      <point x="42" y="439" type="line"/>
      <point x="52" y="437" type="line" smooth="yes"/>
      <point x="74" y="433"/>
      <point x="83" y="426"/>
      <point x="80" y="408" type="curve" smooth="yes"/>
    </contour>
    <contour>
      <point x="580" y="511" type="line"/>
      <point x="574.3842422867544" y="512.8719192377486"/>
      <point x="556.7857142857143" y="518.0"/>
      <point x="528" y="518" type="curve" smooth="yes"/>
      <point x="418.77083333333337" y="518.0"/>
      <point x="374.0758861570871" y="428.2475334171651"/>
      <point x="332" y="291" type="curve"/>
      <point x="320" y="268" type="line"/>
      <point x="347.5030390029269" y="319.95018478330644"/>
      <point x="407.2285714285714" y="332.0"/>
      <point x="462" y="332" type="curve" smooth="yes"/>
      <point x="499.0731707317073" y="332.0"/>
      <point x="524.3946292873509" y="327.8684569042164"/>
      <point x="542" y="322" type="curve"/>
    </contour>
  </outline>
</glyph>
<glyph name="s" format="2">
  <advance width="651"/>
  <unicode hex="0073"/>
  <anchor x="326" y="513" name="top"/>
  <anchor x="329" y="0" name="bottom"/>
  <outline>
    <contour>
      <point x="304" y="-11" type="curve" smooth="yes"/>
      <point x="512.0" y="-11.0"/>
      <point x="612.0108100474433" y="55.71360435424485"/>
      <point x="611" y="176" type="curve" smooth="yes"/>
      <point x="610.0120469880723" y="274.79530119277905"/>
      <point x="509.8819093548065" y="309.0420782758735"/>
      <point x="423" y="340" type="curve" smooth="yes"/>
      <point x="347.8667183227758" y="367.0479814038007"/>
      <point x="309.0" y="375.53846153846155"/>
      <point x="309" y="406" type="curve" smooth="yes"/>
      <point x="309.0" y="429.35135135135135"/>
      <point x="330.0" y="442.0"/>
      <point x="367" y="442" type="curve" smooth="yes"/>
      <point x="414" y="442"/>
      <point x="439.7697720001554" y="427.2302279998446"/>
      <point x="460" y="407" type="curve"/>
      <point x="490.46773474887374" y="419.8901954706773"/>
      <point x="460.0" y="460.0"/>
      <point x="436" y="460" type="curve"/>
      <point x="421" y="370" type="line"/>
      <point x="602" y="370" type="line"/>
      <point x="616" y="462" type="line"/>
      <point x="580" y="490"/>
      <point x="488.0" y="523.0"/>
      <point x="362" y="523" type="curve" smooth="yes"/>
      <point x="178.0" y="523.0"/>
      <point x="61" y="465"/>
      <point x="62" y="344" type="curve" smooth="yes"/>
      <point x="63" y="240"/>
      <point x="165.10722447950866" y="205.9634462001675"/>
      <point x="253" y="176" type="curve" smooth="yes"/>
      <point x="327" y="151"/>
      <point x="360.0" y="142.47619047619048"/>
      <point x="360" y="112" type="curve" smooth="yes"/>
      <point x="360.0" y="85.27272727272728"/>
      <point x="335.3623188405797" y="70.0"/>
      <point x="292" y="70" type="curve" smooth="yes"/>
      <point x="217.9933774834437" y="70.0"/>
      <point x="167.1489370225325" y="95.83244584965092"/>
      <point x="143" y="123" type="curve"/>
      <point x="134" y="97"/>
      <point x="151" y="58"/>
      <point x="188" y="44" type="curve"/>
      <point x="208" y="157" type="line"/>
      <point x="25" y="157" type="line"/>
      <point x="6" y="57" type="line"/>
      <point x="56.46616647397876" y="22.68300679769444"/>
      <point x="166.14965986394557" y="-11.0"/>
    </contour>
  </outline>
</glyph>
<glyph name="u" format="2">
  <advance width="794"/>
  <unicode hex="0075"/>
  <anchor x="379" y="513" name="top"/>
  <anchor x="554" y="0" name="right"/>
  <anchor x="375" y="0" name="bottom"/>
  <outline>
    <contour>
      <point x="337" y="203" type="curve" smooth="yes"/>
      <point x="395" y="513" type="line"/>
      <point x="61" y="513" type="line"/>
      <point x="47" y="439" type="line"/>
      <point x="57" y="437" type="line" smooth="yes"/>
      <point x="77" y="433"/>
      <point x="89" y="426"/>
      <point x="85" y="407" type="curve" smooth="yes"/>
      <point x="50" y="224" type="line" smooth="yes"/>
      <point x="39.72198619204697" y="170.26067066127416"/>
      <point x="34.0" y="141.74107142857144"/>
      <point x="34" y="113" type="curve" smooth="yes"/>
      <point x="35.00800076559193" y="39.41594411178906"/>
      <point x="93.71084337349397" y="-13.0"/>
      <point x="202" y="-13" type="curve" smooth="yes"/>
      <point x="335" y="-13"/>
      <point x="412" y="60"/>
      <point x="486" y="168" type="curve"/>
      <point x="471" y="228" type="line"/>
      <point x="439" y="154"/>
      <point x="388" y="101"/>
      <point x="357" y="101" type="curve" smooth="yes"/>
      <point x="337" y="101"/>
      <point x="329" y="116"/>
      <point x="329" y="139" type="curve" smooth="yes"/>
      <point x="329" y="156"/>
      <point x="332" y="174"/>
    </contour>
    <contour>
      <point x="609" y="-11" type="curve" smooth="yes"/>
      <point x="673.2434210526316" y="-11.0"/>
      <point x="737.5762362568842" y="5.804416733946519"/>
      <point x="764" y="18" type="curve"/>
      <point x="778" y="96" type="line"/>
      <point x="774" y="95"/>
      <point x="759" y="88"/>
      <point x="742" y="88" type="curve" smooth="yes"/>
      <point x="723.0" y="88.0"/>
      <point x="715.0" y="98"/>
      <point x="715" y="114" type="curve" smooth="yes"/>
      <point x="715" y="134"/>
      <point x="720.3341338244855" y="162.8377360346706"/>
      <point x="728" y="205" type="curve" smooth="yes"/>
      <point x="784" y="513" type="line"/>
      <point x="493" y="513" type="line"/>
      <point x="419" y="109" type="line"/>
      <point x="430" y="134" type="line"/>
      <point x="430" y="126"/>
      <point x="431" y="121"/>
      <point x="431" y="115" type="curve"/>
      <point x="431.9999976143328" y="32.00019801037509"/>
      <point x="499.83977900552486" y="-11.0"/>
    </contour>
  </outline>
</glyph>
<glyph name="x" format="2">
  <advance width="733"/>
  <unicode hex="0078"/>
  <outline>
    <contour>
      <point x="476" y="247" type="line"/>
      <point x="748" y="503" type="line"/>
      <point x="748" y="513" type="line"/>
      <point x="564" y="513" type="line"/>
      <point x="409" y="285" type="line"/>
    </contour>
    <contour>
      <point x="-11" y="0" type="line"/>
      <point x="181" y="0" type="line"/>
      <point x="336" y="225" type="line"/>
      <point x="258" y="267" type="line"/>
      <point x="-11" y="12" type="line"/>
    </contour>
    <contour>
      <point x="512" y="-12" type="curve" smooth="yes"/>
      <point x="574.0722891566265" y="-12.0"/>
      <point x="642.7922523098187" y="2.3322348396013535"/>
      <point x="673" y="15" type="curve"/>
      <point x="676" y="96" type="line"/>
      <point x="672.1218403356095" y="95.03046008390237"/>
      <point x="654.5641025641025" y="88.0"/>
      <point x="638" y="88" type="curve" smooth="yes"/>
      <point x="611.5737704918033" y="88.0"/>
      <point x="595.0174070430562" y="102.58403344707335"/>
      <point x="576" y="142" type="curve" smooth="yes"/>
      <point x="397" y="513" type="line"/>
      <point x="108" y="513" type="line"/>
      <point x="95" y="439" type="line"/>
      <point x="112" y="437" type="line" smooth="yes"/>
      <point x="137" y="434"/>
      <point x="148" y="425"/>
      <point x="157" y="407" type="curve" smooth="yes"/>
      <point x="311" y="94" type="line" smooth="yes"/>
      <point x="349" y="18"/>
      <point x="407.3979591836735" y="-12.0"/>
    </contour>
  </outline>
</glyph>
<glyph name="y" format="2">
  <advance width="703"/>
  <unicode hex="0079"/>
  <anchor x="357" y="513" name="top"/>
  <anchor x="366" y="-211" name="bottom"/>
  <outline>
    <contour>
      <point x="284" y="-103" type="line"/>
      <point x="76" y="408" type="line" smooth="yes"/>
      <point x="68.66494586232287" y="426.0202531940049"/>
      <point x="63.23150788433419" y="432.7760894755756"/>
      <point x="40" y="437" type="curve" smooth="yes"/>
      <point x="29" y="439" type="line"/>
      <point x="42" y="513" type="line"/>
      <point x="332" y="513" type="line"/>
      <point x="459" y="146" type="line"/>
      <point x="327" y="-33" type="line"/>
    </contour>
    <contour>
      <point x="392" y="106" type="line"/>
      <point x="439" y="242"/>
      <point x="489" y="377"/>
      <point x="537" y="513" type="curve"/>
      <point x="720" y="513" type="line"/>
      <point x="718" y="500" type="line"/>
      <point x="624.0" y="340.0"/>
      <point x="529" y="180"/>
      <point x="408" y="-25" type="curve" smooth="yes"/>
      <point x="320.3949882119092" y="-173.33121314119919"/>
      <point x="252.64685314685315" y="-234.0"/>
      <point x="125" y="-234" type="curve" smooth="yes"/>
      <point x="73.67256637168141" y="-234.0"/>
      <point x="25.576666484639556" y="-220.28833324231977"/>
      <point x="9" y="-212" type="curve"/>
      <point x="39" y="-61" type="line"/>
      <point x="56" y="-67"/>
      <point x="98" y="-86"/>
      <point x="156" y="-86" type="curve" smooth="yes"/>
      <point x="239.86363636363637" y="-86.0"/>
      <point x="263.3920636809234" y="-57.94982942609805"/>
      <point x="291" y="16" type="curve"/>
    </contour>
  </outline>
</glyph>
<glyph name="Thorn" format="2">
  <advance width="860"/>
  <unicode hex="00DE"/>
  <outline>
    <contour>
      <point x="301" y="485" type="line"/>
      <point x="438" y="485" type="line" smooth="yes"/>
      <point x="510" y="485"/>
      <point x="545" y="450"/>
      <point x="547" y="385" type="curve" smooth="yes"/>
      <point x="549" y="311"/>
      <point x="517" y="236"/>
      <point x="415" y="236" type="curve" smooth="yes"/>
      <point x="259" y="236" type="line"/>
      <point x="243" y="149" type="line"/>
      <point x="477" y="149" type="line" smooth="yes"/>
      <point x="725" y="149"/>
      <point x="856" y="228"/>
      <point x="852" y="379" type="curve" smooth="yes"/>
      <point x="849" y="491"/>
      <point x="751" y="572"/>
      <point x="524" y="572" type="curve" smooth="yes"/>
      <point x="318" y="572" type="line"/>
    </contour>
    <contour>
      <point x="51" y="112" type="line" smooth="yes"/>
      <point x="45" y="83"/>
      <point x="24" y="76"/>
      <point x="-5" y="76" type="curve" smooth="yes"/>
      <point x="-17" y="76" type="line"/>
      <point x="-33" y="0" type="line"/>
      <point x="413" y="0" type="line"/>
      <point x="429" y="76" type="line"/>
      <point x="401" y="76" type="line" smooth="yes"/>
      <point x="380" y="76"/>
      <point x="356" y="79"/>
      <point x="356" y="86" type="curve" smooth="yes"/>
      <point x="451" y="624" type="line" smooth="yes"/>
      <point x="451" y="631"/>
      <point x="478" y="634"/>
      <point x="499" y="634" type="curve" smooth="yes"/>
      <point x="527" y="634" type="line"/>
      <point x="543" y="710" type="line"/>
      <point x="96" y="710" type="line"/>
      <point x="80" y="634" type="line"/>
      <point x="91" y="634" type="line" smooth="yes"/>
      <point x="121" y="634"/>
      <point x="142" y="627"/>
      <point x="136" y="598" type="curve" smooth="yes"/>
    </contour>
  </outline>
</glyph>
<glyph name="Iogonek" format="2">
  <advance width="484"/>
  <unicode hex="012E"/>
  <outline>
    <contour>
      <point x="324" y="42" type="line"/>
      <point x="61" y="-11"/>
      <point x="-22" y="-61"/>
      <point x="-20" y="-142" type="curve" smooth="yes"/>
      <point x="-18" y="-209"/>
      <point x="54" y="-244"/>
      <point x="159" y="-244" type="curve" smooth="yes"/>
      <point x="243" y="-244"/>
      <point x="301" y="-215"/>
      <point x="348" y="-178" type="curve"/>
      <point x="301" y="-125" type="line"/>
      <point x="290" y="-134"/>
      <point x="268" y="-149"/>
      <point x="241" y="-149" type="curve" smooth="yes"/>
      <point x="214" y="-149"/>
      <point x="196" y="-138"/>
      <point x="195" y="-113" type="curve"/>
      <point x="195" y="-83"/>
      <point x="208" y="-46"/>
      <point x="348" y="13" type="curve"/>
    </contour>
    <component base="I"/>
  </outline>
</glyph>
<glyph name="tbar" format="2">
  <advance width="502"/>
  <unicode hex="0167"/>
  <outline>
    <contour>
      <point x="488" y="351" type="line"/>
      <point x="11" y="351" type="line"/>
      <point x="-5" y="272" type="line"/>
      <point x="471" y="272" type="line"/>
    </contour>
    <component base="t"/>
  </outline>
</glyph>
<glyph name="iinvertedbreve" format="2">
  <advance width="403"/>
  <unicode hex="020B"/>
  <outline>
    <contour>
      <point x="242" y="756" type="curve" smooth="yes"/>
      <point x="117" y="756"/>
      <point x="30" y="706"/>
      <point x="19" y="567" type="curve"/>
      <point x="141" y="567" type="line"/>
      <point x="148" y="613"/>
      <point x="171" y="630"/>
      <point x="230" y="630" type="curve" smooth="yes"/>
      <point x="285" y="630"/>
      <point x="309" y="612"/>
      <point x="309" y="567" type="curve"/>
      <point x="437" y="567" type="line"/>
      <point x="440" y="583"/>
      <point x="441" y="597"/>
      <point x="440" y="611" type="curve" smooth="yes"/>
      <point x="438" y="711"/>
      <point x="354" y="756"/>
    </contour>
    <component base="dotlessi"/>
  </outline>
</glyph>
<glyph name="emdash" format="2">
  <advance width="1120"/>
  <unicode hex="2014"/>
  <outline>
    <contour>
      <point x="90" y="378" type="line"/>
      <point x="68" y="260" type="line"/>
      <point x="1034" y="260" type="line"/>
      <point x="1057" y="378" type="line"/>
    </contour>
  </outline>
</glyph>
<glyph name="franc" format="2">
  <advance width="661"/>
  <unicode hex="20A3"/>
  <outline>
    <contour>
      <point x="-20" y="0" type="line"/>
      <point x="432" y="0" type="line"/>
      <point x="448" y="76" type="line"/>
      <point x="434" y="76" type="line" smooth="yes"/>
      <point x="393" y="76"/>
      <point x="359" y="77"/>
      <point x="365" y="112" type="curve" smooth="yes"/>
      <point x="455" y="624" type="line"/>
      <point x="472" y="624" type="line" smooth="yes"/>
      <point x="529" y="624"/>
      <point x="568" y="617"/>
      <point x="567" y="581" type="curve" smooth="yes"/>
      <point x="564" y="513" type="line"/>
      <point x="671" y="513" type="line"/>
      <point x="705" y="710" type="line"/>
      <point x="109" y="710" type="line"/>
      <point x="93" y="634" type="line"/>
      <point x="109" y="634" type="line" smooth="yes"/>
      <point x="137" y="634"/>
      <point x="158" y="627"/>
      <point x="153" y="598" type="curve" smooth="yes"/>
      <point x="68" y="112" type="line" smooth="yes"/>
      <point x="62" y="83"/>
      <point x="40" y="76"/>
      <point x="11" y="76" type="curve" smooth="yes"/>
      <point x="-4" y="76" type="line"/>
    </contour>
    <contour>
      <point x="388" y="418" type="curve"/>
      <point x="373" y="346" type="line"/>
      <point x="443" y="341"/>
      <point x="513" y="337"/>
      <point x="584" y="333" type="curve"/>
      <point x="603" y="431" type="line"/>
      <point x="531" y="427"/>
      <point x="459" y="423"/>
    </contour>
    <contour>
      <point x="27" y="252" type="line"/>
      <point x="12" y="174" type="line"/>
      <point x="491" y="174" type="line"/>
      <point x="507" y="252" type="line"/>
    </contour>
  </outline>
</glyph>
<glyph name="uni20B8" format="2">
  <advance width="661"/>
  <unicode hex="20B8"/>
  <outline>
    <contour>
      <point x="159" y="112" type="line" smooth="yes"/>
      <point x="153" y="83"/>
      <point x="133" y="76"/>
      <point x="105" y="76" type="curve" smooth="yes"/>
      <point x="88" y="76" type="line"/>
      <point x="72" y="0" type="line"/>
      <point x="470" y="0" type="line"/>
      <point x="485" y="76" type="line"/>
      <point x="469" y="76" type="line" smooth="yes"/>
      <point x="438" y="76"/>
      <point x="420" y="83"/>
      <point x="426" y="112" type="curve" smooth="yes"/>
      <point x="485" y="463" type="line"/>
      <point x="490" y="463" type="line" smooth="yes"/>
      <point x="515" y="463"/>
      <point x="547" y="456"/>
      <point x="543" y="418" type="curve" smooth="yes"/>
      <point x="530" y="317" type="line"/>
      <point x="642" y="317" type="line"/>
      <point x="687" y="550" type="line"/>
      <point x="54" y="550" type="line"/>
      <point x="9" y="317" type="line"/>
      <point x="120" y="317" type="line"/>
      <point x="147" y="418" type="line" smooth="yes"/>
      <point x="158" y="456"/>
      <point x="188" y="463"/>
      <point x="213" y="463" type="curve" smooth="yes"/>
      <point x="219" y="463" type="line"/>
    </contour>
    <contour>
      <point x="83" y="710" type="line"/>
      <point x="66" y="624" type="line"/>
      <point x="698" y="624" type="line"/>
      <point x="716" y="710" type="line"/>
    </contour>
  </outline>
</glyph>
<glyph name="bracketleft.uc" format="2">
  <advance width="427"/>
  <outline>
    <contour>
      <point x="-22" y="-39" type="line"/>
      <point x="331" y="-39" type="line"/>
      <point x="348" y="52" type="line"/>
      <point x="222" y="52" type="line"/>
      <point x="324" y="654" type="line"/>
      <point x="449" y="654" type="line"/>
      <point x="466" y="745" type="line"/>
      <point x="116" y="745" type="line"/>
    </contour>
  </outline>
</glyph>
<glyph name="heart" format="2">
  <advance width="1063"/>
  <outline>
    <contour>
      <point x="528" y="-10" type="line"/>
      <point x="555" y="-10" type="line"/>
      <point x="827" y="273" type="line" smooth="yes"/>
      <point x="924" y="375"/>
      <point x="978" y="437"/>
      <point x="975" y="535" type="curve" smooth="yes"/>
      <point x="972" y="632"/>
      <point x="892" y="710"/>
      <point x="756" y="710" type="curve" smooth="yes"/>
      <point x="646" y="710"/>
      <point x="569" y="657"/>
      <point x="526" y="569" type="curve"/>
      <point x="478" y="657"/>
      <point x="397" y="710"/>
      <point x="288" y="710" type="curve" smooth="yes"/>
      <point x="151" y="710"/>
      <point x="75" y="632"/>
      <point x="78" y="535" type="curve" smooth="yes"/>
      <point x="81" y="437"/>
      <point x="137" y="375"/>
      <point x="241" y="273" type="curve" smooth="yes"/>
    </contour>
  </outline>
</glyph>
<glyph name="nine.oldtab" format="2">
  <advance width="661"/>
  <outline>
    <contour>
      <point x="9" y="-80" type="line"/>
      <point x="183" y="-67"/>
      <point x="326" y="31"/>
      <point x="367" y="244" type="curve" smooth="yes"/>
      <point x="378" y="307"/>
      <point x="381" y="355"/>
      <point x="380" y="397" type="curve" smooth="yes"/>
      <point x="378" y="447"/>
      <point x="371" y="473"/>
      <point x="351" y="473" type="curve" smooth="yes"/>
      <point x="320" y="473"/>
      <point x="306" y="436"/>
      <point x="293" y="347" type="curve" smooth="yes"/>
      <point x="288" y="318"/>
      <point x="285" y="292"/>
      <point x="286" y="270" type="curve" smooth="yes"/>
      <point x="287" y="230"/>
      <point x="297" y="202"/>
      <point x="326" y="202" type="curve" smooth="yes"/>
      <point x="353" y="202"/>
      <point x="378" y="235"/>
      <point x="407" y="281" type="curve"/>
      <point x="396" y="232" type="line"/>
      <point x="372" y="177"/>
      <point x="319" y="117"/>
      <point x="228" y="117" type="curve" smooth="yes"/>
      <point x="99" y="117"/>
      <point x="19" y="195"/>
      <point x="16" y="305" type="curve" smooth="yes"/>
      <point x="12" y="455"/>
      <point x="136" y="558"/>
      <point x="342" y="558" type="curve" smooth="yes"/>
      <point x="531" y="558"/>
      <point x="635" y="480"/>
      <point x="640" y="322" type="curve" smooth="yes"/>
      <point x="647" y="63"/>
      <point x="416" y="-147"/>
      <point x="8" y="-165" type="curve"/>
    </contour>
  </outline>
</glyph>
<glyph name="seven.lin" format="2">
  <advance width="661"/>
  <outline>
    <contour>
      <point x="297" y="564" type="line" smooth="yes"/>
      <point x="225" y="564"/>
      <point x="197" y="557"/>
      <point x="187" y="521" type="curve" smooth="yes"/>
      <point x="164" y="446" type="line"/>
      <point x="69" y="446" type="line"/>
      <point x="119" y="710" type="line"/>
      <point x="704" y="710" type="line"/>
      <point x="678" y="578" type="line"/>
      <point x="527" y="442"/>
      <point x="431" y="313"/>
      <point x="398" y="0" type="curve"/>
      <point x="137" y="0" type="line"/>
      <point x="183" y="298"/>
      <point x="470" y="523"/>
      <point x="600" y="597" type="curve"/>
      <point x="622" y="564" type="line"/>
    </contour>
  </outline>
</glyph>
